<mxfile host="app.diagrams.net" modified="2021-02-20T15:34:03.643Z" agent="5.0 (Windows NT 10.0; Win64; x64) AppleWebKit/537.36 (KHTML, like Gecko) Chrome/85.0.4183.102 Safari/537.36" etag="GxKv8JjLjsdKOiBRwT0t" version="14.4.2" type="github" pages="2">
  <diagram id="kgpKYQtTHZ0yAKxKKP6v" name="Page-1">
    <mxGraphModel dx="1422" dy="794" grid="1" gridSize="10" guides="1" tooltips="1" connect="1" arrows="1" fold="1" page="1" pageScale="1" pageWidth="850" pageHeight="1100" math="0" shadow="0">
      <root>
        <mxCell id="0" />
        <mxCell id="1" parent="0" />
        <mxCell id="3nuBFxr9cyL0pnOWT2aG-1" value=":Object" style="shape=umlLifeline;perimeter=lifelinePerimeter;container=1;collapsible=0;recursiveResize=0;rounded=0;shadow=0;strokeWidth=1;" parent="1" vertex="1">
          <mxGeometry x="110" y="80" width="100" height="300" as="geometry" />
        </mxCell>
        <mxCell id="3nuBFxr9cyL0pnOWT2aG-2" value="" style="points=[];perimeter=orthogonalPerimeter;rounded=0;shadow=0;strokeWidth=1;" parent="3nuBFxr9cyL0pnOWT2aG-1" vertex="1">
          <mxGeometry x="45" y="70" width="10" height="190" as="geometry" />
        </mxCell>
        <mxCell id="3nuBFxr9cyL0pnOWT2aG-3" value="dispatch" style="verticalAlign=bottom;startArrow=oval;endArrow=block;startSize=8;shadow=0;strokeWidth=1;" parent="3nuBFxr9cyL0pnOWT2aG-1" target="3nuBFxr9cyL0pnOWT2aG-2" edge="1">
          <mxGeometry relative="1" as="geometry">
            <mxPoint x="-15" y="70" as="sourcePoint" />
          </mxGeometry>
        </mxCell>
        <mxCell id="3nuBFxr9cyL0pnOWT2aG-5" value="Dent EX system" style="shape=umlLifeline;perimeter=lifelinePerimeter;container=1;collapsible=0;recursiveResize=0;rounded=0;shadow=0;strokeWidth=1;" parent="1" vertex="1">
          <mxGeometry x="340" y="70" width="100" height="300" as="geometry" />
        </mxCell>
        <mxCell id="3nuBFxr9cyL0pnOWT2aG-6" value="" style="points=[];perimeter=orthogonalPerimeter;rounded=0;shadow=0;strokeWidth=1;" parent="3nuBFxr9cyL0pnOWT2aG-5" vertex="1">
          <mxGeometry x="45" y="80" width="10" height="160" as="geometry" />
        </mxCell>
        <mxCell id="3nuBFxr9cyL0pnOWT2aG-7" value="return" style="verticalAlign=bottom;endArrow=open;dashed=1;endSize=8;exitX=0;exitY=0.95;shadow=0;strokeWidth=1;" parent="1" source="3nuBFxr9cyL0pnOWT2aG-6" target="3nuBFxr9cyL0pnOWT2aG-2" edge="1">
          <mxGeometry relative="1" as="geometry">
            <mxPoint x="275" y="236" as="targetPoint" />
          </mxGeometry>
        </mxCell>
        <mxCell id="3nuBFxr9cyL0pnOWT2aG-8" value="dispatch" style="verticalAlign=bottom;endArrow=block;entryX=0;entryY=0;shadow=0;strokeWidth=1;" parent="1" source="3nuBFxr9cyL0pnOWT2aG-2" target="3nuBFxr9cyL0pnOWT2aG-6" edge="1">
          <mxGeometry relative="1" as="geometry">
            <mxPoint x="275" y="160" as="sourcePoint" />
          </mxGeometry>
        </mxCell>
        <mxCell id="3nuBFxr9cyL0pnOWT2aG-9" value="callback" style="verticalAlign=bottom;endArrow=block;entryX=1;entryY=0;shadow=0;strokeWidth=1;" parent="1" source="3nuBFxr9cyL0pnOWT2aG-6" edge="1">
          <mxGeometry relative="1" as="geometry">
            <mxPoint x="240" y="200" as="sourcePoint" />
            <mxPoint x="180" y="200" as="targetPoint" />
          </mxGeometry>
        </mxCell>
        <mxCell id="3nuBFxr9cyL0pnOWT2aG-10" value="return" style="verticalAlign=bottom;endArrow=open;dashed=1;endSize=8;exitX=1;exitY=0.95;shadow=0;strokeWidth=1;" parent="1" target="3nuBFxr9cyL0pnOWT2aG-6" edge="1">
          <mxGeometry relative="1" as="geometry">
            <mxPoint x="240" y="257" as="targetPoint" />
            <mxPoint x="180" y="276" as="sourcePoint" />
          </mxGeometry>
        </mxCell>
        <mxCell id="urmneYmRrZ609OJl_tpq-1" value="Patient record" style="shape=umlLifeline;perimeter=lifelinePerimeter;container=1;collapsible=0;recursiveResize=0;rounded=0;shadow=0;strokeWidth=1;" vertex="1" parent="1">
          <mxGeometry x="500" y="70" width="100" height="300" as="geometry" />
        </mxCell>
        <mxCell id="urmneYmRrZ609OJl_tpq-2" value="" style="points=[];perimeter=orthogonalPerimeter;rounded=0;shadow=0;strokeWidth=1;" vertex="1" parent="urmneYmRrZ609OJl_tpq-1">
          <mxGeometry x="45" y="80" width="10" height="160" as="geometry" />
        </mxCell>
      </root>
    </mxGraphModel>
  </diagram>
  <diagram id="jVJFA4NOMfb7a7_R2LGY" name="Page-2">
    <mxGraphModel dx="2773" dy="934" grid="1" gridSize="10" guides="1" tooltips="1" connect="1" arrows="1" fold="1" page="1" pageScale="1" pageWidth="1100" pageHeight="850" math="0" shadow="0">
      <root>
        <mxCell id="7P5BoDyNHF2wJGkyKOE7-0" />
        <mxCell id="7P5BoDyNHF2wJGkyKOE7-1" parent="7P5BoDyNHF2wJGkyKOE7-0" />
        <mxCell id="7P5BoDyNHF2wJGkyKOE7-3" style="edgeStyle=orthogonalEdgeStyle;rounded=0;orthogonalLoop=1;jettySize=auto;html=1;" edge="1" parent="7P5BoDyNHF2wJGkyKOE7-1" source="7P5BoDyNHF2wJGkyKOE7-2">
          <mxGeometry relative="1" as="geometry">
            <mxPoint x="360" y="110" as="targetPoint" />
          </mxGeometry>
        </mxCell>
        <mxCell id="7P5BoDyNHF2wJGkyKOE7-45" style="edgeStyle=orthogonalEdgeStyle;rounded=0;orthogonalLoop=1;jettySize=auto;html=1;endArrow=oval;endFill=1;" edge="1" parent="7P5BoDyNHF2wJGkyKOE7-1" source="7P5BoDyNHF2wJGkyKOE7-2">
          <mxGeometry relative="1" as="geometry">
            <mxPoint x="150" y="110" as="targetPoint" />
          </mxGeometry>
        </mxCell>
        <mxCell id="7P5BoDyNHF2wJGkyKOE7-2" value="Patient&amp;nbsp;" style="rounded=0;whiteSpace=wrap;html=1;" vertex="1" parent="7P5BoDyNHF2wJGkyKOE7-1">
          <mxGeometry x="170" y="80" width="120" height="60" as="geometry" />
        </mxCell>
        <mxCell id="7P5BoDyNHF2wJGkyKOE7-73" style="edgeStyle=orthogonalEdgeStyle;rounded=0;orthogonalLoop=1;jettySize=auto;html=1;exitX=1;exitY=0.5;exitDx=0;exitDy=0;endArrow=oval;endFill=1;entryX=1;entryY=0.5;entryDx=0;entryDy=0;" edge="1" parent="7P5BoDyNHF2wJGkyKOE7-1" target="7P5BoDyNHF2wJGkyKOE7-5">
          <mxGeometry relative="1" as="geometry">
            <mxPoint x="1050" y="669.5294117647059" as="sourcePoint" />
          </mxGeometry>
        </mxCell>
        <mxCell id="7P5BoDyNHF2wJGkyKOE7-74" style="edgeStyle=orthogonalEdgeStyle;rounded=0;orthogonalLoop=1;jettySize=auto;html=1;endArrow=oval;endFill=1;" edge="1" parent="7P5BoDyNHF2wJGkyKOE7-1" source="7P5BoDyNHF2wJGkyKOE7-5">
          <mxGeometry relative="1" as="geometry">
            <mxPoint x="579.9999999999995" y="669.9999999999998" as="targetPoint" />
          </mxGeometry>
        </mxCell>
        <mxCell id="7P5BoDyNHF2wJGkyKOE7-5" value="Booking" style="rounded=0;whiteSpace=wrap;html=1;" vertex="1" parent="7P5BoDyNHF2wJGkyKOE7-1">
          <mxGeometry x="900" y="640" width="120" height="60" as="geometry" />
        </mxCell>
        <mxCell id="7P5BoDyNHF2wJGkyKOE7-15" style="edgeStyle=orthogonalEdgeStyle;rounded=0;orthogonalLoop=1;jettySize=auto;html=1;entryX=0;entryY=0.5;entryDx=0;entryDy=0;" edge="1" parent="7P5BoDyNHF2wJGkyKOE7-1" source="7P5BoDyNHF2wJGkyKOE7-7" target="7P5BoDyNHF2wJGkyKOE7-14">
          <mxGeometry relative="1" as="geometry" />
        </mxCell>
        <mxCell id="7P5BoDyNHF2wJGkyKOE7-7" value="Creates&amp;nbsp;" style="rhombus;whiteSpace=wrap;html=1;" vertex="1" parent="7P5BoDyNHF2wJGkyKOE7-1">
          <mxGeometry x="360" y="70" width="80" height="80" as="geometry" />
        </mxCell>
        <mxCell id="7P5BoDyNHF2wJGkyKOE7-8" value="1" style="text;html=1;align=center;verticalAlign=middle;resizable=0;points=[];autosize=1;" vertex="1" parent="7P5BoDyNHF2wJGkyKOE7-1">
          <mxGeometry x="290" y="90" width="20" height="20" as="geometry" />
        </mxCell>
        <mxCell id="7P5BoDyNHF2wJGkyKOE7-63" style="edgeStyle=orthogonalEdgeStyle;rounded=0;orthogonalLoop=1;jettySize=auto;html=1;exitX=0;exitY=0.5;exitDx=0;exitDy=0;endArrow=oval;endFill=1;entryX=0;entryY=0.5;entryDx=0;entryDy=0;" edge="1" parent="7P5BoDyNHF2wJGkyKOE7-1" target="7P5BoDyNHF2wJGkyKOE7-10">
          <mxGeometry relative="1" as="geometry">
            <mxPoint x="870" y="349.52941176470586" as="sourcePoint" />
          </mxGeometry>
        </mxCell>
        <mxCell id="7P5BoDyNHF2wJGkyKOE7-65" style="edgeStyle=orthogonalEdgeStyle;rounded=0;orthogonalLoop=1;jettySize=auto;html=1;entryX=0.5;entryY=0;entryDx=0;entryDy=0;endArrow=oval;endFill=1;" edge="1" parent="7P5BoDyNHF2wJGkyKOE7-1" source="7P5BoDyNHF2wJGkyKOE7-10" target="7P5BoDyNHF2wJGkyKOE7-64">
          <mxGeometry relative="1" as="geometry" />
        </mxCell>
        <mxCell id="7P5BoDyNHF2wJGkyKOE7-10" value="Available Date&amp;nbsp;" style="rounded=0;whiteSpace=wrap;html=1;" vertex="1" parent="7P5BoDyNHF2wJGkyKOE7-1">
          <mxGeometry x="900" y="320" width="120" height="60" as="geometry" />
        </mxCell>
        <mxCell id="7P5BoDyNHF2wJGkyKOE7-25" style="edgeStyle=orthogonalEdgeStyle;rounded=0;orthogonalLoop=1;jettySize=auto;html=1;entryX=0.5;entryY=0;entryDx=0;entryDy=0;" edge="1" parent="7P5BoDyNHF2wJGkyKOE7-1" source="7P5BoDyNHF2wJGkyKOE7-11" target="7P5BoDyNHF2wJGkyKOE7-24">
          <mxGeometry relative="1" as="geometry" />
        </mxCell>
        <mxCell id="7P5BoDyNHF2wJGkyKOE7-60" style="edgeStyle=orthogonalEdgeStyle;rounded=0;orthogonalLoop=1;jettySize=auto;html=1;exitX=1;exitY=0.5;exitDx=0;exitDy=0;endArrow=oval;endFill=1;entryX=1;entryY=0.5;entryDx=0;entryDy=0;" edge="1" parent="7P5BoDyNHF2wJGkyKOE7-1" target="7P5BoDyNHF2wJGkyKOE7-11">
          <mxGeometry relative="1" as="geometry">
            <mxPoint x="1050" y="109.52941176470586" as="sourcePoint" />
          </mxGeometry>
        </mxCell>
        <mxCell id="7P5BoDyNHF2wJGkyKOE7-11" value="Dentists&amp;nbsp;" style="rounded=0;whiteSpace=wrap;html=1;" vertex="1" parent="7P5BoDyNHF2wJGkyKOE7-1">
          <mxGeometry x="900" y="80" width="120" height="60" as="geometry" />
        </mxCell>
        <mxCell id="7P5BoDyNHF2wJGkyKOE7-78" style="edgeStyle=orthogonalEdgeStyle;rounded=0;orthogonalLoop=1;jettySize=auto;html=1;entryX=0.5;entryY=1;entryDx=0;entryDy=0;endArrow=oval;endFill=1;" edge="1" parent="7P5BoDyNHF2wJGkyKOE7-1" source="7P5BoDyNHF2wJGkyKOE7-13" target="7P5BoDyNHF2wJGkyKOE7-2">
          <mxGeometry relative="1" as="geometry" />
        </mxCell>
        <mxCell id="7P5BoDyNHF2wJGkyKOE7-13" value="Text" style="rounded=0;whiteSpace=wrap;html=1;" vertex="1" parent="7P5BoDyNHF2wJGkyKOE7-1">
          <mxGeometry x="170" y="640" width="120" height="60" as="geometry" />
        </mxCell>
        <mxCell id="7P5BoDyNHF2wJGkyKOE7-19" style="edgeStyle=orthogonalEdgeStyle;rounded=0;orthogonalLoop=1;jettySize=auto;html=1;entryX=0;entryY=0.5;entryDx=0;entryDy=0;" edge="1" parent="7P5BoDyNHF2wJGkyKOE7-1" source="7P5BoDyNHF2wJGkyKOE7-14" target="7P5BoDyNHF2wJGkyKOE7-18">
          <mxGeometry relative="1" as="geometry" />
        </mxCell>
        <mxCell id="7P5BoDyNHF2wJGkyKOE7-14" value="Appointment&amp;nbsp;" style="rounded=0;whiteSpace=wrap;html=1;" vertex="1" parent="7P5BoDyNHF2wJGkyKOE7-1">
          <mxGeometry x="550" y="80" width="120" height="60" as="geometry" />
        </mxCell>
        <mxCell id="7P5BoDyNHF2wJGkyKOE7-16" value="M" style="text;html=1;align=center;verticalAlign=middle;resizable=0;points=[];autosize=1;" vertex="1" parent="7P5BoDyNHF2wJGkyKOE7-1">
          <mxGeometry x="515" y="80" width="30" height="20" as="geometry" />
        </mxCell>
        <mxCell id="7P5BoDyNHF2wJGkyKOE7-75" style="edgeStyle=orthogonalEdgeStyle;rounded=0;orthogonalLoop=1;jettySize=auto;html=1;exitX=0;exitY=0.5;exitDx=0;exitDy=0;entryX=1.083;entryY=0.492;entryDx=0;entryDy=0;entryPerimeter=0;endArrow=oval;endFill=1;" edge="1" parent="7P5BoDyNHF2wJGkyKOE7-1" source="7P5BoDyNHF2wJGkyKOE7-17" target="7P5BoDyNHF2wJGkyKOE7-13">
          <mxGeometry relative="1" as="geometry" />
        </mxCell>
        <mxCell id="7P5BoDyNHF2wJGkyKOE7-17" value="Generates" style="rhombus;whiteSpace=wrap;html=1;" vertex="1" parent="7P5BoDyNHF2wJGkyKOE7-1">
          <mxGeometry x="500" y="630" width="80" height="80" as="geometry" />
        </mxCell>
        <mxCell id="7P5BoDyNHF2wJGkyKOE7-21" style="edgeStyle=orthogonalEdgeStyle;rounded=0;orthogonalLoop=1;jettySize=auto;html=1;" edge="1" parent="7P5BoDyNHF2wJGkyKOE7-1" source="7P5BoDyNHF2wJGkyKOE7-18" target="7P5BoDyNHF2wJGkyKOE7-11">
          <mxGeometry relative="1" as="geometry" />
        </mxCell>
        <mxCell id="7P5BoDyNHF2wJGkyKOE7-18" value="Consists of&amp;nbsp;" style="rhombus;whiteSpace=wrap;html=1;" vertex="1" parent="7P5BoDyNHF2wJGkyKOE7-1">
          <mxGeometry x="760" y="70" width="80" height="80" as="geometry" />
        </mxCell>
        <mxCell id="7P5BoDyNHF2wJGkyKOE7-20" value="1" style="text;html=1;align=center;verticalAlign=middle;resizable=0;points=[];autosize=1;" vertex="1" parent="7P5BoDyNHF2wJGkyKOE7-1">
          <mxGeometry x="670" y="90" width="20" height="20" as="geometry" />
        </mxCell>
        <mxCell id="7P5BoDyNHF2wJGkyKOE7-22" value="1" style="text;html=1;align=center;verticalAlign=middle;resizable=0;points=[];autosize=1;" vertex="1" parent="7P5BoDyNHF2wJGkyKOE7-1">
          <mxGeometry x="880" y="90" width="20" height="20" as="geometry" />
        </mxCell>
        <mxCell id="7P5BoDyNHF2wJGkyKOE7-26" style="edgeStyle=orthogonalEdgeStyle;rounded=0;orthogonalLoop=1;jettySize=auto;html=1;exitX=0.5;exitY=1;exitDx=0;exitDy=0;entryX=0.5;entryY=0;entryDx=0;entryDy=0;" edge="1" parent="7P5BoDyNHF2wJGkyKOE7-1" source="7P5BoDyNHF2wJGkyKOE7-24" target="7P5BoDyNHF2wJGkyKOE7-10">
          <mxGeometry relative="1" as="geometry" />
        </mxCell>
        <mxCell id="7P5BoDyNHF2wJGkyKOE7-24" value="Requires" style="rhombus;whiteSpace=wrap;html=1;" vertex="1" parent="7P5BoDyNHF2wJGkyKOE7-1">
          <mxGeometry x="920" y="180" width="80" height="80" as="geometry" />
        </mxCell>
        <mxCell id="7P5BoDyNHF2wJGkyKOE7-27" value="1" style="text;html=1;align=center;verticalAlign=middle;resizable=0;points=[];autosize=1;" vertex="1" parent="7P5BoDyNHF2wJGkyKOE7-1">
          <mxGeometry x="970" y="145" width="20" height="20" as="geometry" />
        </mxCell>
        <mxCell id="7P5BoDyNHF2wJGkyKOE7-28" value="M" style="text;html=1;align=center;verticalAlign=middle;resizable=0;points=[];autosize=1;" vertex="1" parent="7P5BoDyNHF2wJGkyKOE7-1">
          <mxGeometry x="970" y="290" width="30" height="20" as="geometry" />
        </mxCell>
        <mxCell id="7P5BoDyNHF2wJGkyKOE7-71" style="edgeStyle=orthogonalEdgeStyle;rounded=0;orthogonalLoop=1;jettySize=auto;html=1;exitX=0;exitY=0.5;exitDx=0;exitDy=0;endArrow=oval;endFill=1;" edge="1" parent="7P5BoDyNHF2wJGkyKOE7-1" source="7P5BoDyNHF2wJGkyKOE7-29">
          <mxGeometry relative="1" as="geometry">
            <mxPoint x="1050" y="629.5294117647059" as="targetPoint" />
          </mxGeometry>
        </mxCell>
        <mxCell id="7P5BoDyNHF2wJGkyKOE7-29" value="Dentist" style="ellipse;whiteSpace=wrap;html=1;" vertex="1" parent="7P5BoDyNHF2wJGkyKOE7-1">
          <mxGeometry x="1070" y="605" width="160" height="50" as="geometry" />
        </mxCell>
        <mxCell id="7P5BoDyNHF2wJGkyKOE7-49" style="edgeStyle=orthogonalEdgeStyle;rounded=0;orthogonalLoop=1;jettySize=auto;html=1;exitX=1;exitY=0.5;exitDx=0;exitDy=0;endArrow=oval;endFill=1;" edge="1" parent="7P5BoDyNHF2wJGkyKOE7-1" source="7P5BoDyNHF2wJGkyKOE7-30">
          <mxGeometry relative="1" as="geometry">
            <mxPoint x="870" y="334.66666666666674" as="targetPoint" />
          </mxGeometry>
        </mxCell>
        <mxCell id="7P5BoDyNHF2wJGkyKOE7-30" value="Day" style="ellipse;whiteSpace=wrap;html=1;" vertex="1" parent="7P5BoDyNHF2wJGkyKOE7-1">
          <mxGeometry x="740" y="335" width="110" height="30" as="geometry" />
        </mxCell>
        <mxCell id="7P5BoDyNHF2wJGkyKOE7-36" style="edgeStyle=orthogonalEdgeStyle;rounded=0;orthogonalLoop=1;jettySize=auto;html=1;exitX=1;exitY=0.5;exitDx=0;exitDy=0;endArrow=oval;endFill=1;" edge="1" parent="7P5BoDyNHF2wJGkyKOE7-1" source="7P5BoDyNHF2wJGkyKOE7-31">
          <mxGeometry relative="1" as="geometry">
            <mxPoint x="150" y="55" as="targetPoint" />
          </mxGeometry>
        </mxCell>
        <mxCell id="7P5BoDyNHF2wJGkyKOE7-31" value="First Name&amp;nbsp;" style="ellipse;whiteSpace=wrap;html=1;" vertex="1" parent="7P5BoDyNHF2wJGkyKOE7-1">
          <mxGeometry x="-10" y="40" width="130" height="30" as="geometry" />
        </mxCell>
        <mxCell id="7P5BoDyNHF2wJGkyKOE7-39" style="edgeStyle=orthogonalEdgeStyle;rounded=0;orthogonalLoop=1;jettySize=auto;html=1;endArrow=oval;endFill=1;" edge="1" parent="7P5BoDyNHF2wJGkyKOE7-1" source="7P5BoDyNHF2wJGkyKOE7-32">
          <mxGeometry relative="1" as="geometry">
            <mxPoint x="150" y="105" as="targetPoint" />
          </mxGeometry>
        </mxCell>
        <mxCell id="7P5BoDyNHF2wJGkyKOE7-32" value="Last&amp;nbsp; Name&amp;nbsp;" style="ellipse;whiteSpace=wrap;html=1;" vertex="1" parent="7P5BoDyNHF2wJGkyKOE7-1">
          <mxGeometry x="-10" y="90" width="130" height="30" as="geometry" />
        </mxCell>
        <mxCell id="7P5BoDyNHF2wJGkyKOE7-40" style="edgeStyle=orthogonalEdgeStyle;rounded=0;orthogonalLoop=1;jettySize=auto;html=1;exitX=1;exitY=0.5;exitDx=0;exitDy=0;endArrow=oval;endFill=1;" edge="1" parent="7P5BoDyNHF2wJGkyKOE7-1" source="7P5BoDyNHF2wJGkyKOE7-34">
          <mxGeometry relative="1" as="geometry">
            <mxPoint x="150" y="155.2" as="targetPoint" />
          </mxGeometry>
        </mxCell>
        <mxCell id="7P5BoDyNHF2wJGkyKOE7-34" value="Patient ID" style="ellipse;whiteSpace=wrap;html=1;" vertex="1" parent="7P5BoDyNHF2wJGkyKOE7-1">
          <mxGeometry x="-10" y="140" width="130" height="30" as="geometry" />
        </mxCell>
        <mxCell id="7P5BoDyNHF2wJGkyKOE7-35" value="" style="endArrow=none;html=1;" edge="1" parent="7P5BoDyNHF2wJGkyKOE7-1">
          <mxGeometry width="50" height="50" relative="1" as="geometry">
            <mxPoint x="150" y="170" as="sourcePoint" />
            <mxPoint x="150" y="50" as="targetPoint" />
          </mxGeometry>
        </mxCell>
        <mxCell id="7P5BoDyNHF2wJGkyKOE7-48" style="edgeStyle=orthogonalEdgeStyle;rounded=0;orthogonalLoop=1;jettySize=auto;html=1;exitX=1;exitY=0.5;exitDx=0;exitDy=0;endArrow=oval;endFill=1;" edge="1" parent="7P5BoDyNHF2wJGkyKOE7-1" source="7P5BoDyNHF2wJGkyKOE7-43">
          <mxGeometry relative="1" as="geometry">
            <mxPoint x="870" y="284.66666666666674" as="targetPoint" />
          </mxGeometry>
        </mxCell>
        <mxCell id="7P5BoDyNHF2wJGkyKOE7-43" value="Time" style="ellipse;whiteSpace=wrap;html=1;" vertex="1" parent="7P5BoDyNHF2wJGkyKOE7-1">
          <mxGeometry x="740" y="290" width="110" height="30" as="geometry" />
        </mxCell>
        <mxCell id="7P5BoDyNHF2wJGkyKOE7-50" style="edgeStyle=orthogonalEdgeStyle;rounded=0;orthogonalLoop=1;jettySize=auto;html=1;endArrow=oval;endFill=1;" edge="1" parent="7P5BoDyNHF2wJGkyKOE7-1" source="7P5BoDyNHF2wJGkyKOE7-44">
          <mxGeometry relative="1" as="geometry">
            <mxPoint x="870" y="385" as="targetPoint" />
          </mxGeometry>
        </mxCell>
        <mxCell id="7P5BoDyNHF2wJGkyKOE7-44" value="Month" style="ellipse;whiteSpace=wrap;html=1;" vertex="1" parent="7P5BoDyNHF2wJGkyKOE7-1">
          <mxGeometry x="735" y="380" width="115" height="30" as="geometry" />
        </mxCell>
        <mxCell id="7P5BoDyNHF2wJGkyKOE7-47" value="" style="endArrow=none;html=1;" edge="1" parent="7P5BoDyNHF2wJGkyKOE7-1">
          <mxGeometry width="50" height="50" relative="1" as="geometry">
            <mxPoint x="870" y="410" as="sourcePoint" />
            <mxPoint x="870" y="290" as="targetPoint" />
          </mxGeometry>
        </mxCell>
        <mxCell id="7P5BoDyNHF2wJGkyKOE7-58" style="edgeStyle=orthogonalEdgeStyle;rounded=0;orthogonalLoop=1;jettySize=auto;html=1;exitX=0;exitY=0.5;exitDx=0;exitDy=0;endArrow=oval;endFill=1;" edge="1" parent="7P5BoDyNHF2wJGkyKOE7-1" source="7P5BoDyNHF2wJGkyKOE7-55">
          <mxGeometry relative="1" as="geometry">
            <mxPoint x="1050" y="84.82352941176475" as="targetPoint" />
          </mxGeometry>
        </mxCell>
        <mxCell id="7P5BoDyNHF2wJGkyKOE7-55" value="First Name&amp;nbsp;" style="ellipse;whiteSpace=wrap;html=1;" vertex="1" parent="7P5BoDyNHF2wJGkyKOE7-1">
          <mxGeometry x="1060" y="70" width="130" height="30" as="geometry" />
        </mxCell>
        <mxCell id="7P5BoDyNHF2wJGkyKOE7-59" style="edgeStyle=orthogonalEdgeStyle;rounded=0;orthogonalLoop=1;jettySize=auto;html=1;exitX=0;exitY=0.5;exitDx=0;exitDy=0;endArrow=oval;endFill=1;" edge="1" parent="7P5BoDyNHF2wJGkyKOE7-1" source="7P5BoDyNHF2wJGkyKOE7-56">
          <mxGeometry relative="1" as="geometry">
            <mxPoint x="1050" y="135.41176470588243" as="targetPoint" />
          </mxGeometry>
        </mxCell>
        <mxCell id="7P5BoDyNHF2wJGkyKOE7-56" value="Last&amp;nbsp; Name&amp;nbsp;" style="ellipse;whiteSpace=wrap;html=1;" vertex="1" parent="7P5BoDyNHF2wJGkyKOE7-1">
          <mxGeometry x="1060" y="120" width="130" height="30" as="geometry" />
        </mxCell>
        <mxCell id="7P5BoDyNHF2wJGkyKOE7-57" value="" style="endArrow=none;html=1;" edge="1" parent="7P5BoDyNHF2wJGkyKOE7-1">
          <mxGeometry width="50" height="50" relative="1" as="geometry">
            <mxPoint x="1050" y="180" as="sourcePoint" />
            <mxPoint x="1050" y="60" as="targetPoint" />
            <Array as="points">
              <mxPoint x="1050" y="120" />
            </Array>
          </mxGeometry>
        </mxCell>
        <mxCell id="7P5BoDyNHF2wJGkyKOE7-67" style="edgeStyle=orthogonalEdgeStyle;rounded=0;orthogonalLoop=1;jettySize=auto;html=1;exitX=0.5;exitY=1;exitDx=0;exitDy=0;entryX=0.5;entryY=0;entryDx=0;entryDy=0;endArrow=oval;endFill=1;" edge="1" parent="7P5BoDyNHF2wJGkyKOE7-1" source="7P5BoDyNHF2wJGkyKOE7-64" target="7P5BoDyNHF2wJGkyKOE7-5">
          <mxGeometry relative="1" as="geometry" />
        </mxCell>
        <mxCell id="7P5BoDyNHF2wJGkyKOE7-64" value="Creates" style="rhombus;whiteSpace=wrap;html=1;" vertex="1" parent="7P5BoDyNHF2wJGkyKOE7-1">
          <mxGeometry x="920" y="490" width="80" height="80" as="geometry" />
        </mxCell>
        <mxCell id="7P5BoDyNHF2wJGkyKOE7-66" value="1" style="text;html=1;align=center;verticalAlign=middle;resizable=0;points=[];autosize=1;" vertex="1" parent="7P5BoDyNHF2wJGkyKOE7-1">
          <mxGeometry x="970" y="390" width="20" height="20" as="geometry" />
        </mxCell>
        <mxCell id="7P5BoDyNHF2wJGkyKOE7-68" value="1" style="text;html=1;align=center;verticalAlign=middle;resizable=0;points=[];autosize=1;" vertex="1" parent="7P5BoDyNHF2wJGkyKOE7-1">
          <mxGeometry x="970" y="620" width="20" height="20" as="geometry" />
        </mxCell>
        <mxCell id="7P5BoDyNHF2wJGkyKOE7-72" style="edgeStyle=orthogonalEdgeStyle;rounded=0;orthogonalLoop=1;jettySize=auto;html=1;exitX=0;exitY=0.5;exitDx=0;exitDy=0;endArrow=oval;endFill=1;" edge="1" parent="7P5BoDyNHF2wJGkyKOE7-1" source="7P5BoDyNHF2wJGkyKOE7-69">
          <mxGeometry relative="1" as="geometry">
            <mxPoint x="1050" y="704.8235294117646" as="targetPoint" />
          </mxGeometry>
        </mxCell>
        <mxCell id="7P5BoDyNHF2wJGkyKOE7-69" value="Date" style="ellipse;whiteSpace=wrap;html=1;" vertex="1" parent="7P5BoDyNHF2wJGkyKOE7-1">
          <mxGeometry x="1060" y="680" width="160" height="50" as="geometry" />
        </mxCell>
        <mxCell id="7P5BoDyNHF2wJGkyKOE7-70" value="" style="endArrow=none;html=1;" edge="1" parent="7P5BoDyNHF2wJGkyKOE7-1">
          <mxGeometry width="50" height="50" relative="1" as="geometry">
            <mxPoint x="1050" y="719.9999999999998" as="sourcePoint" />
            <mxPoint x="1050" y="599.9999999999998" as="targetPoint" />
          </mxGeometry>
        </mxCell>
        <mxCell id="7P5BoDyNHF2wJGkyKOE7-76" value="1" style="text;html=1;align=center;verticalAlign=middle;resizable=0;points=[];autosize=1;" vertex="1" parent="7P5BoDyNHF2wJGkyKOE7-1">
          <mxGeometry x="870" y="640" width="20" height="20" as="geometry" />
        </mxCell>
        <mxCell id="7P5BoDyNHF2wJGkyKOE7-77" value="1" style="text;html=1;align=center;verticalAlign=middle;resizable=0;points=[];autosize=1;" vertex="1" parent="7P5BoDyNHF2wJGkyKOE7-1">
          <mxGeometry x="310" y="650" width="20" height="20" as="geometry" />
        </mxCell>
        <mxCell id="7P5BoDyNHF2wJGkyKOE7-79" value="1" style="text;html=1;align=center;verticalAlign=middle;resizable=0;points=[];autosize=1;" vertex="1" parent="7P5BoDyNHF2wJGkyKOE7-1">
          <mxGeometry x="200" y="610" width="20" height="20" as="geometry" />
        </mxCell>
        <mxCell id="7P5BoDyNHF2wJGkyKOE7-81" style="edgeStyle=orthogonalEdgeStyle;rounded=0;orthogonalLoop=1;jettySize=auto;html=1;endArrow=oval;endFill=1;" edge="1" parent="7P5BoDyNHF2wJGkyKOE7-1" source="7P5BoDyNHF2wJGkyKOE7-80">
          <mxGeometry relative="1" as="geometry">
            <mxPoint x="159.99999999999955" y="669.9999999999998" as="targetPoint" />
          </mxGeometry>
        </mxCell>
        <mxCell id="7P5BoDyNHF2wJGkyKOE7-80" value="Booking" style="ellipse;whiteSpace=wrap;html=1;" vertex="1" parent="7P5BoDyNHF2wJGkyKOE7-1">
          <mxGeometry x="-40" y="645" width="160" height="50" as="geometry" />
        </mxCell>
      </root>
    </mxGraphModel>
  </diagram>
</mxfile>
